<?xml version="1.0" encoding="UTF-8"?><svg id="uuid-07176949-2bbf-44c2-b080-2afb3026c526" xmlns="http://www.w3.org/2000/svg" width="208.97mm" height="138.1mm" viewBox="0 0 592.35 391.47"><defs><style>.uuid-da5374bb-be8b-45cb-b454-14c6a1e1e614,.uuid-19136149-a73a-4f38-afe4-7cec917278f0{stroke-width:0px;}.uuid-19136149-a73a-4f38-afe4-7cec917278f0{fill:#1d1d1b;}</style></defs><g id="uuid-ac3e0ff8-6708-4f56-b9f7-29b25523506c"><path class="uuid-19136149-a73a-4f38-afe4-7cec917278f0" d="m592.35,80.03h-171.27c-22.93,0-49.19,6.19-64.72-13.88-6.47-8.36-7.97-20.43-14.92-28.44-13.19-15.18-27.57-12.67-46.41-12.67V.16c18.84,0,33.22-2.52,46.41,12.67,6.95,8.01,8.45,20.07,14.92,28.44,15.53,20.07,41.78,13.88,64.72,13.88h171.27v24.89Z"/><path class="uuid-19136149-a73a-4f38-afe4-7cec917278f0" d="m592.35,131.81h-171.27c-22.93,0-49.19,6.19-64.72-13.88-6.47-8.36-7.97-20.43-14.92-28.44-13.19-15.18-27.57-12.67-46.41-12.67v-24.89c18.84,0,33.22-2.52,46.41,12.67,6.95,8.01,8.45,20.07,14.92,28.44,15.53,20.07,41.78,13.88,64.72,13.88h171.27v24.89Z"/><path class="uuid-19136149-a73a-4f38-afe4-7cec917278f0" d="m592.35,183.59h-171.27c-22.93,0-49.19,6.19-64.72-13.88-6.47-8.36-7.97-20.43-14.92-28.44-13.19-15.18-27.57-12.67-46.41-12.67v-24.89c18.84,0,33.22-2.52,46.41,12.67,6.95,8.01,8.45,20.07,14.92,28.44,15.53,20.07,41.78,13.88,64.72,13.88h171.27v24.89Z"/><path class="uuid-19136149-a73a-4f38-afe4-7cec917278f0" d="m592.35,235.36h-171.27c-22.93,0-49.19,6.19-64.72-13.88-6.47-8.36-7.97-20.43-14.92-28.44-13.19-15.18-27.57-12.67-46.41-12.67v-24.89c18.84,0,33.22-2.52,46.41,12.67,6.95,8.01,8.45,20.07,14.92,28.44,15.53,20.07,41.78,13.88,64.72,13.88h171.27v24.89Z"/><path class="uuid-19136149-a73a-4f38-afe4-7cec917278f0" d="m592.35,287.14h-171.35c-25.31,0-51.06,6.32-66.64-17.26-11.37-17.21-12.78-33.91-35.58-37.72-22.47-3.76-49.53,0-72.23,0H0v-24.89h246.55c22.71,0,49.77-3.76,72.23,0,22.8,3.81,24.21,20.51,35.58,37.72,15.58,23.58,41.33,17.26,66.64,17.26h171.35v24.89Z"/><path class="uuid-19136149-a73a-4f38-afe4-7cec917278f0" d="m592.35,338.92h-171.35c-25.31,0-51.06,6.32-66.64-17.26-11.37-17.21-12.78-33.91-35.58-37.72-22.47-3.76-49.53,0-72.23,0H0v-24.89h246.55c22.71,0,49.77-3.76,72.23,0,22.8,3.81,24.21,20.51,35.58,37.72,15.58,23.58,41.33,17.26,66.64,17.26h171.35v24.89Z"/><path class="uuid-19136149-a73a-4f38-afe4-7cec917278f0" d="m592.35,390.7h-171.35c-25.31,0-51.06,6.32-66.64-17.26-11.37-17.21-12.78-33.91-35.58-37.72-22.47-3.76-49.53,0-72.23,0H0v-24.89h246.55c22.71,0,49.77-3.76,72.23,0,22.8,3.81,24.21,20.51,35.58,37.72,15.58,23.58,41.33,17.26,66.64,17.26h171.35v24.89Z"/><path class="uuid-da5374bb-be8b-45cb-b454-14c6a1e1e614" d="m95.09,143.16h-11.91v12.02c-.09,8.09-3,14.12-7.62,14.12h7.63c4.76,0,7.14,0,11.89,0v-26.14Z"/><path class="uuid-da5374bb-be8b-45cb-b454-14c6a1e1e614" d="m206.33,44.16s-.05,0-.07,0v-14.2c.04-8.19,2.97-14.31,7.63-14.31-7.75,0-11.62,0-19.37,0v28.49c-6.31,0-14.44,0-22.63,0v12.08c8.18,0,16.32,0,22.63,0h0c4.71,0,7.07,0,11.78,0,0,0,0,0,0,0,9.08.38,13.07,6.77,13.07,17.16v7.08h12.59v-6.4c.31-15.18-8.78-30.54-25.64-29.92Z"/><path class="uuid-da5374bb-be8b-45cb-b454-14c6a1e1e614" d="m219.38,111.56c0,9.45-3.35,15.53-10.78,16.86v12.22c15.21-1.64,24.32-14.83,23.37-29.76v-10.48h-12.59v11.16Z"/><path class="uuid-da5374bb-be8b-45cb-b454-14c6a1e1e614" d="m206.26,154.82v14.48h7.63c-4.69,0-7.63-6.21-7.63-14.48Z"/><path class="uuid-da5374bb-be8b-45cb-b454-14c6a1e1e614" d="m213.84,93h.01,0s0,0,0,0h-.01c-4.53-.01-7.4-5.83-7.58-13.69v-20.73h-11.74v70.15c-2.68,0-5.68,0-8.88,0l-13.82-31.95c1.31-2.34,3.12-3.77,5.33-3.78h.01s0,0,0,0c0,0,0,0,0,0h-.01c-4.59-.01-7.48-5.98-7.6-14v-22.77h0V15.67h-11.74v28.48c-3.13,0-6.09,0-8.76,0-4.11-9.49-8.21-18.99-12.32-28.48h-16.84v28.48c-2.41,0-4.95,0-7.54,0-4.11-9.49-8.21-18.99-12.32-28.48h-16.84c-3.05,0-4.57,0-7.62,0,4.62,0,7.53,6.03,7.62,14.12v14.37s-.04,0-.04,0c-16.63,0-26.48,14.26-25.67,29.93v4.76c-.1,8.05-3,14.04-7.6,14.05h-.01s0,0,0,0c0,0,0,0,0,0h.01c4.6.01,7.5,6,7.6,14.05v3.92c-.81,15.63,8.98,29.88,25.59,29.93,0,0,.07,0,.12,0h0c4.76.01,7.15.01,11.91.01h0c7.34,0,16.8,0,24.8,0v28.48h11.91v-26.61h0v-16.3h0v-10.49l5.77,12.84c-.94,0-1.49,0-1.5,0-.04,0-.77,0-1.94,0v12.08c1.23,0,1.98,0,1.98,0,.08,0,2.7,0,6.87,0v.03h11.19s0-.02-.01-.03c1.19,0,2.4,0,3.65,0v8.43c-1.05-2.43-1.57-3.64-2.62-6.07h-11.14c3.91,8.71,7.82,17.41,11.73,26.12h13.78v-51.06c1.88,4.2,2.83,6.29,4.71,10.49-.79,0-1.58,0-2.37,0v12.08c2.62,0,5.24,0,7.79,0,0,.01,0,.02.02.03h11.18s0-.02-.02-.04c1.27,0,2.49,0,3.65,0v8.44c-1.05-2.43-1.57-3.64-2.62-6.07h-11.14c3.91,8.71,7.82,17.41,11.73,26.12h13.78v-62.61c.19-7.86,3.06-13.68,7.58-13.69Zm-130.66-11.49c-.69,6.55-3.41,11.16-7.44,11.17h-.01,0s0,0,0,0h.01c4.03.01,6.75,4.62,7.44,11.17v24.84s-.04,0-.05,0c-8.47-.7-12.57-6.95-12.57-17.13v-38.15c0-10.18,3.99-16.52,12.55-17.13,0,0,.05,0,.07,0v25.24Zm36.7-19.94l-1.3-3h-12.53c4.2,9.36,8.41,18.73,12.61,28.09-1.29,3.68-3.48,6-6.34,6.01h-.01,0s0,0,0,0h.01c4.38.01,7.2,5.46,7.55,12.93v23.12c-8,0-17.46,0-24.8-.02V59.59h0v-16.3h0v-9.15c1.8,4,2.7,6,4.49,10.01-.75,0-1.44,0-2.16,0v12.1c1.44,0,2.93,0,4.47,0h0c6.27,0,9.41,0,15.68,0,0,0,0,0,0,0,.78,0,1.55,0,2.31,0v5.35Zm37.93,2.83c-1.01-2.33-1.51-3.5-2.52-5.83h-12.53c5.02,11.17,10.03,22.35,15.05,33.52v36.64c-3.18,0-6.17,0-8.87,0-5.71-13.21-11.43-26.42-17.15-39.63v-32.88h.06v-12.08h-.06v-10c1.8,4,2.69,6,4.49,10h-.29s-.72,0-1.81,0v12.08c1.28,0,2.09,0,2.15,0,.05,0,2.08,0,5.37,0,0,0,0,0,0,.01h12.57s0,0,0,0c1.15,0,2.33,0,3.54,0v8.18Z"/><path class="uuid-da5374bb-be8b-45cb-b454-14c6a1e1e614" d="m256.6,84.77c1.88,0,2.3-.91,2.67-1.94h1.63v15.46h-2.43v-11.79h-1.88v-1.72Z"/><path class="uuid-da5374bb-be8b-45cb-b454-14c6a1e1e614" d="m267.33,98.46c-2.45,0-3.8-1.41-3.8-3.89v-1.21c0-1.48.44-2.63,1.5-3.22-1.02-.55-1.5-1.59-1.5-3.11v-.49c0-2.47,1.35-3.89,3.8-3.89s3.8,1.41,3.8,3.89v.49c0,1.52-.51,2.56-1.5,3.11,1.06.6,1.5,1.74,1.5,3.22v1.21c0,2.47-1.35,3.89-3.8,3.89Zm-1.37-10.98c0,1.24.57,1.63,1.37,1.63s1.37-.4,1.37-1.63v-.86c0-1.39-.6-1.77-1.37-1.77s-1.37.37-1.37,1.77v.86Zm1.37,8.77c.77,0,1.35-.38,1.37-1.75v-1.43c0-1.21-.51-1.75-1.37-1.75s-1.37.53-1.37,1.75v1.43c0,1.37.6,1.75,1.37,1.75Z"/><path class="uuid-da5374bb-be8b-45cb-b454-14c6a1e1e614" d="m13.38,84.86c-.77,0-1.26.42-1.26,1.52v1.66h-2.3v-1.5c0-2.47,1.24-3.89,3.62-3.89s3.62,1.41,3.62,3.89c0,4.86-4.84,6.67-4.84,9.21,0,.11,0,.22.02.33h4.59v2.21h-7.02v-1.9c0-4.55,4.81-5.3,4.81-9.76,0-1.39-.49-1.77-1.26-1.77Z"/><path class="uuid-da5374bb-be8b-45cb-b454-14c6a1e1e614" d="m18.37,86.54c0-2.47,1.3-3.89,3.69-3.89s3.69,1.41,3.69,3.89v8.04c0,2.47-1.3,3.89-3.69,3.89s-3.69-1.41-3.69-3.89v-8.04Zm2.43,8.19c0,1.1.49,1.52,1.26,1.52s1.26-.42,1.26-1.52v-8.35c0-1.1-.49-1.52-1.26-1.52s-1.26.42-1.26,1.52v8.35Z"/></g></svg>